{
  "accessors": [
    {
      "bufferView": 2,
      "componentType": 5126,
      "count": 65532,
      "max": [
        185.96859741210938,
        673.5933837890625,
        334.81793212890625
      ],
      "min": [
        -665.2100219726563,
        -96.16044616699219,
        -512.4857788085938
      ],
      "type": "VEC3"
    },
    {
      "bufferView": 2,
      "byteOffset": 786384,
      "componentType": 5126,
      "count": 65532,
      "max": [
        0.9978708028793335,
        0.9999391436576843,
        0.9982856512069702
      ],
      "min": [
        -0.9993406534194946,
        -0.9999974370002747,
        -0.9978505969047546
      ],
      "type": "VEC3"
    },
    {
      "bufferView": 3,
      "componentType": 5126,
      "count": 65532,
      "max": [
        0.9996915459632874,
        0.9993319511413574,
        0.9971005916595459,
        1.0
      ],
      "min": [
        -0.998058557510376,
        -0.9988740682601929,
        -0.9985999464988708,
        -1.0
      ],
      "type": "VEC4"
    },
    {
      "bufferView": 1,
      "componentType": 5126,
      "count": 65532,
      "max": [
        0.9843214154243469,
        1.0039681196212769
      ],
      "min": [
        0.016320103779435158,
        0.002396289724856615
      ],
      "type": "VEC2"
    },
    {
      "bufferView": 0,
      "componentType": 5125,
      "count": 149688,
      "type": "SCALAR"
    },
    {
      "bufferView": 2,
      "byteOffset": 1572768,
      "componentType": 5126,
      "count": 2758,
      "max": [
        16.851104736328125,
        666.7137451171875,
        329.0074157714844
      ],
      "min": [
        -378.673583984375,
        14.97222900390625,
        -508.9167175292969
      ],
      "type": "VEC3"
    },
    {
      "bufferView": 2,
      "byteOffset": 1605864,
      "componentType": 5126,
      "count": 2758,
      "max": [
        0.9876224994659424,
        0.9907546043395996,
        0.9978823065757751
      ],
      "min": [
        -0.9987855553627014,
        -0.9987061619758606,
        -0.9963176250457764
      ],
      "type": "VEC3"
    },
    {
      "bufferView": 3,
      "byteOffset": 1048512,
      "componentType": 5126,
      "count": 2758,
      "max": [
        0.9966915845870972,
        0.9993317723274231,
        0.9988902807235718,
        1.0
      ],
      "min": [
        -0.9972811341285706,
        -0.9965242743492126,
        -0.9939432144165039,
        -1.0
      ],
      "type": "VEC4"
    },
    {
      "bufferView": 1,
      "byteOffset": 524256,
      "componentType": 5126,
      "count": 2758,
      "max": [
        0.9816967844963074,
        0.9901570081710815
      ],
      "min": [
        0.02163822017610073,
        0.1836005300283432
      ],
      "type": "VEC2"
    },
    {
      "bufferView": 0,
      "byteOffset": 598752,
      "componentType": 5125,
      "count": 12744,
      "type": "SCALAR"
    }
  ],
  "asset": {
    "extras": {
      "author": "_SeF_ (https://sketchfab.com/_SeF_)",
      "license": "CC-BY-4.0 (http://creativecommons.org/licenses/by/4.0/)",
      "source": "https://sketchfab.com/3d-models/raft-48fb810caf0941328a6619a9a948b565",
      "title": "Raft"
    },
    "generator": "Sketchfab-12.66.0",
    "version": "2.0"
  },
  "bufferViews": [
    {
      "buffer": 0,
      "byteLength": 649728,
      "name": "floatBufferViews",
      "target": 34963
    },
    {
      "buffer": 0,
      "byteLength": 546320,
      "byteOffset": 649728,
      "byteStride": 8,
      "name": "floatBufferViews",
      "target": 34962
    },
    {
      "buffer": 0,
      "byteLength": 1638960,
      "byteOffset": 1196048,
      "byteStride": 12,
      "name": "floatBufferViews",
      "target": 34962
    },
    {
      "buffer": 0,
      "byteLength": 1092640,
      "byteOffset": 2835008,
      "byteStride": 16,
      "name": "floatBufferViews",
      "target": 34962
    }
  ],
  "buffers": [
    {
      "byteLength": 3927648,
      "uri": "scene.bin"
    }
  ],
  "images": [
    {
      "uri": "textures/raft_baseColor.png"
    },
    {
      "uri": "textures/raft_metallicRoughness.png"
    },
    {
      "uri": "textures/raft_normal.png"
    }
  ],
  "materials": [
    {
      "doubleSided": true,
      "name": "raft",
      "normalTexture": {
        "index": 2
      },
      "occlusionTexture": {
        "index": 1
      },
      "pbrMetallicRoughness": {
        "baseColorTexture": {
          "index": 0
        },
        "metallicRoughnessTexture": {
          "index": 1
        }
      }
    }
  ],
  "meshes": [
    {
      "name": "log_023_raft_0",
      "primitives": [
        {
          "attributes": {
            "NORMAL": 1,
            "POSITION": 0,
            "TANGENT": 2,
            "TEXCOORD_0": 3
          },
          "indices": 4,
          "material": 0,
          "mode": 4
        }
      ]
    },
    {
      "name": "log_023_raft_0",
      "primitives": [
        {
          "attributes": {
            "NORMAL": 6,
            "POSITION": 5,
            "TANGENT": 7,
            "TEXCOORD_0": 8
          },
          "indices": 9,
          "material": 0,
          "mode": 4
        }
      ]
    }
  ],
  "nodes": [
    {
      "children": [
        1
      ],
      "matrix": [
        1.0,
        0.0,
        0.0,
        0.0,
        0.0,
        2.220446049250313e-16,
        -1.0,
        0.0,
        0.0,
        1.0,
        2.220446049250313e-16,
        0.0,
        0.0,
        0.0,
        0.0,
        1.0
      ],
      "name": "Sketchfab_model"
    },
    {
      "children": [
        2
      ],
      "matrix": [
        1.0,
        0.0,
        0.0,
        0.0,
        0.0,
        0.0,
        1.0,
        0.0,
        0.0,
        -1.0,
        0.0,
        0.0,
        0.0,
        0.0,
        0.0,
        1.0
      ],
      "name": "59a81be0d1f444408ad0213667c1938b.fbx"
    },
    {
      "children": [
        3
      ],
      "name": "RootNode"
    },
    {
      "children": [
        4
      ],
      "matrix": [
        1.0033333076813742,
        0.2347352601164931,
        0.2797466453836023,
        0.0,
        -1.199974823118247e-07,
        0.8179250388556412,
        -0.6863200310796466,
        0.0,
        -0.36518327993669447,
        0.6449298742648102,
        0.768598193846198,
        0.0,
        22.846450805664063,
        9.755607604980469,
        121.60574340820313,
        1.0
      ],
      "name": "log_023"
    },
    {
      "children": [
        5,
        6
      ],
      "matrix": [
        1.0,
        0.0,
        -0.0,
        0.0,
        0.0,
        1.0,
        0.0,
        0.0,
        0.0,
        0.0,
        1.0,
        0.0,
        167.16888427734375,
        46.36324691772461,
        -52.6436767578125,
        1.0
      ],
      "name": "Object_4"
    },
    {
      "mesh": 0,
      "name": "log_023_raft_0"
    },
    {
      "mesh": 1,
      "name": "log_023_raft_0"
    }
  ],
  "samplers": [
    {
      "magFilter": 9729,
      "minFilter": 9987,
      "wrapS": 10497,
      "wrapT": 10497
    }
  ],
  "scene": 0,
  "scenes": [
    {
      "name": "Sketchfab_Scene",
      "nodes": [
        0
      ]
    }
  ],
  "textures": [
    {
      "sampler": 0,
      "source": 0
    },
    {
      "sampler": 0,
      "source": 1
    },
    {
      "sampler": 0,
      "source": 2
    }
  ]
}
